# WaveFront *.obj file (generated by Autodesk ATF)

mtllib chassis_visual.mtl

g chassis

v -4.000000 -0.500000 2.500000
v -4.000000 -7.000000 2.500000
v -4.000000 -7.000000 4.500000
v -4.000000 23.000000 4.500000
v -4.000000 23.000000 2.500000
v -4.000000 15.500000 2.500000
v -4.000000 15.433013 2.250000
v -4.000000 15.250000 2.066987
v -4.000000 15.000000 2.000000
v -4.000000 14.750000 2.066987
v -4.000000 14.566987 2.250000
v -4.000000 14.500000 2.500000
v -4.000000 0.500000 2.500000
v -4.000000 0.433013 2.250000
v -4.000000 0.250000 2.066987
v -4.000000 -0.000000 2.000000
v -4.000000 -0.250000 2.066987
v -4.000000 -0.433013 2.250000
v 4.000000 -7.000000 2.500000
v 4.000000 -7.000000 4.500000
v 4.000000 23.000000 4.500000
v 4.000000 23.000000 2.500000
v 4.000000 15.500000 2.500000
v 4.000000 15.433013 2.250000
v 4.000000 15.250000 2.066987
v 4.000000 15.000000 2.000000
v 4.000000 14.750000 2.066987
v 4.000000 14.566987 2.250000
v 4.000000 14.500000 2.500000
v 0.000000 15.433013 2.250000
v 0.000000 15.250000 2.066987
v 0.000000 15.000000 2.000000
v 0.000000 14.750000 2.066987
v 0.000000 14.566987 2.250000
v 4.000000 0.500000 2.500000
v 4.000000 0.433013 2.250000
v 4.000000 0.250000 2.066987
v 4.000000 -0.000000 2.000000
v 4.000000 -0.250000 2.066987
v 4.000000 -0.433013 2.250000
v 4.000000 -0.500000 2.500000
v 0.000000 0.433013 2.250000
v 0.000000 0.250000 2.066987
v 0.000000 -0.000000 2.000000
v 0.000000 -0.250000 2.066987
v 0.000000 -0.433013 2.250000
vt 15.000000 -0.750000 0.000000
vt 15.000000 1.250000 0.000000
vt 8.500000 -0.750000 0.000000
vt 7.500000 -0.750000 0.000000
vt 8.433013 -1.000000 0.000000
vt 7.566987 -1.000000 0.000000
vt 8.250000 -1.183013 0.000000
vt 7.750000 -1.183013 0.000000
vt 8.000000 -1.250000 0.000000
vt -6.500000 -0.750000 0.000000
vt -15.000000 1.250000 0.000000
vt -7.500000 -0.750000 0.000000
vt -15.000000 -0.750000 0.000000
vt -6.566987 -1.000000 0.000000
vt -7.433013 -1.000000 0.000000
vt -6.750000 -1.183013 0.000000
vt -7.250000 -1.183013 0.000000
vt -7.000000 -1.250000 0.000000
vt 2.000000 4.000000 0.000000
vt 0.000000 4.000000 0.000000
vt 2.000000 -4.000000 0.000000
vt 0.000000 -4.000000 0.000000
vt 30.000000 4.000000 0.000000
vt 0.000000 4.000000 0.000000
vt 30.000000 -4.000000 0.000000
vt 0.000000 -4.000000 0.000000
vt 2.000000 4.000000 0.000000
vt 0.000000 4.000000 0.000000
vt 2.000000 -4.000000 0.000000
vt 0.000000 -4.000000 0.000000
vt 7.500000 4.000000 0.000000
vt 0.000000 4.000000 0.000000
vt 7.500000 -4.000000 0.000000
vt 0.000000 -4.000000 0.000000
vt 4.000000 -0.261799 0.000000
vt 4.000000 0.000000 0.000000
vt 0.000000 -0.261799 0.000000
vt -4.000000 0.000000 0.000000
vt -4.000000 -0.261799 0.000000
vt 0.000000 -0.523599 0.000000
vt -4.000000 -0.523599 0.000000
vt 0.000000 -0.785398 0.000000
vt -4.000000 -0.785398 0.000000
vt 0.000000 -1.047198 0.000000
vt -4.000000 -1.047198 0.000000
vt 0.000000 -1.308997 0.000000
vt -4.000000 -1.308997 0.000000
vt -4.000000 -1.570796 0.000000
vt 4.000000 -1.570796 0.000000
vt 4.000000 -1.308997 0.000000
vt 4.000000 -1.047198 0.000000
vt 4.000000 -0.785398 0.000000
vt 4.000000 -0.523599 0.000000
vt 14.000000 4.000000 0.000000
vt 0.000000 4.000000 0.000000
vt 14.000000 -4.000000 0.000000
vt 0.000000 -4.000000 0.000000
vt 4.000000 -0.261799 0.000000
vt 4.000000 0.000000 0.000000
vt 0.000000 -0.261799 0.000000
vt -4.000000 0.000000 0.000000
vt -4.000000 -0.261799 0.000000
vt 0.000000 -0.523599 0.000000
vt -4.000000 -0.523599 0.000000
vt 0.000000 -0.785398 0.000000
vt -4.000000 -0.785398 0.000000
vt 0.000000 -1.047198 0.000000
vt -4.000000 -1.047198 0.000000
vt 0.000000 -1.308997 0.000000
vt -4.000000 -1.308997 0.000000
vt -4.000000 -1.570796 0.000000
vt 4.000000 -1.570796 0.000000
vt 4.000000 -1.308997 0.000000
vt 4.000000 -1.047198 0.000000
vt 4.000000 -0.785398 0.000000
vt 4.000000 -0.523599 0.000000
vt 6.500000 4.000000 0.000000
vt 0.000000 4.000000 0.000000
vt 6.500000 -4.000000 0.000000
vt 0.000000 -4.000000 0.000000
vt -15.000000 -0.750000 0.000000
vt -8.500000 -0.750000 0.000000
vt -15.000000 1.250000 0.000000
vt -7.500000 -0.750000 0.000000
vt 6.500000 -0.750000 0.000000
vt -7.566987 -1.000000 0.000000
vt -8.433013 -1.000000 0.000000
vt -7.750000 -1.183013 0.000000
vt -8.250000 -1.183013 0.000000
vt -8.000000 -1.250000 0.000000
vt 6.566987 -1.000000 0.000000
vt 7.433013 -1.000000 0.000000
vt 7.500000 -0.750000 0.000000
vt 15.000000 1.250000 0.000000
vt 15.000000 -0.750000 0.000000
vt 7.250000 -1.183013 0.000000
vt 6.750000 -1.183013 0.000000
vt 7.000000 -1.250000 0.000000
vn -1.000000 -0.000000 -0.000000
vn -1.000000 -0.000000 -0.000000
vn -1.000000 -0.000000 -0.000000
vn -1.000000 -0.000000 -0.000000
vn -1.000000 -0.000000 -0.000000
vn -1.000000 -0.000000 -0.000000
vn -1.000000 -0.000000 -0.000000
vn -1.000000 -0.000000 -0.000000
vn -1.000000 -0.000000 -0.000000
vn -1.000000 -0.000000 -0.000000
vn -1.000000 -0.000000 -0.000000
vn -1.000000 -0.000000 -0.000000
vn -1.000000 -0.000000 -0.000000
vn -1.000000 -0.000000 -0.000000
vn -1.000000 -0.000000 -0.000000
vn -1.000000 -0.000000 -0.000000
vn -1.000000 -0.000000 -0.000000
vn -1.000000 -0.000000 -0.000000
vn 0.000000 -1.000000 0.000000
vn 0.000000 -1.000000 0.000000
vn 0.000000 -1.000000 0.000000
vn 0.000000 -1.000000 0.000000
vn -0.000000 0.000000 1.000000
vn -0.000000 0.000000 1.000000
vn -0.000000 0.000000 1.000000
vn -0.000000 0.000000 1.000000
vn 0.000000 1.000000 0.000000
vn 0.000000 1.000000 0.000000
vn 0.000000 1.000000 0.000000
vn 0.000000 1.000000 0.000000
vn 0.000000 0.000000 -1.000000
vn 0.000000 0.000000 -1.000000
vn 0.000000 0.000000 -1.000000
vn 0.000000 0.000000 -1.000000
vn -0.000000 0.866025 -0.500000
vn -0.000000 1.000000 -0.000000
vn -0.000000 0.866025 -0.500000
vn -0.000000 1.000000 -0.000000
vn -0.000000 0.866025 -0.500000
vn -0.000000 0.500000 -0.866025
vn -0.000000 0.500000 -0.866025
vn -0.000000 0.000000 -1.000000
vn -0.000000 0.000000 -1.000000
vn 0.000000 -0.500000 -0.866025
vn 0.000000 -0.500000 -0.866025
vn 0.000000 -0.866025 -0.500000
vn 0.000000 -0.866025 -0.500000
vn 0.000000 -1.000000 -0.000000
vn 0.000000 -1.000000 -0.000000
vn 0.000000 -0.866025 -0.500000
vn 0.000000 -0.500000 -0.866025
vn -0.000000 0.000000 -1.000000
vn -0.000000 0.500000 -0.866025
vn 0.000000 0.000000 -1.000000
vn 0.000000 0.000000 -1.000000
vn 0.000000 0.000000 -1.000000
vn 0.000000 0.000000 -1.000000
vn -0.000000 0.866025 -0.500000
vn -0.000000 1.000000 -0.000000
vn -0.000000 0.866025 -0.500000
vn -0.000000 1.000000 -0.000000
vn -0.000000 0.866025 -0.500000
vn -0.000000 0.500000 -0.866025
vn -0.000000 0.500000 -0.866025
vn 0.000000 -0.000000 -1.000000
vn 0.000000 -0.000000 -1.000000
vn 0.000000 -0.500000 -0.866025
vn 0.000000 -0.500000 -0.866025
vn 0.000000 -0.866025 -0.500000
vn 0.000000 -0.866025 -0.500000
vn 0.000000 -1.000000 -0.000000
vn 0.000000 -1.000000 -0.000000
vn 0.000000 -0.866025 -0.500000
vn 0.000000 -0.500000 -0.866025
vn 0.000000 -0.000000 -1.000000
vn -0.000000 0.500000 -0.866025
vn 0.000000 0.000000 -1.000000
vn 0.000000 0.000000 -1.000000
vn 0.000000 0.000000 -1.000000
vn 0.000000 0.000000 -1.000000
vn 1.000000 0.000000 0.000000
vn 1.000000 0.000000 0.000000
vn 1.000000 0.000000 0.000000
vn 1.000000 0.000000 0.000000
vn 1.000000 0.000000 0.000000
vn 1.000000 0.000000 0.000000
vn 1.000000 0.000000 0.000000
vn 1.000000 0.000000 0.000000
vn 1.000000 0.000000 0.000000
vn 1.000000 0.000000 0.000000
vn 1.000000 0.000000 0.000000
vn 1.000000 0.000000 0.000000
vn 1.000000 0.000000 0.000000
vn 1.000000 0.000000 0.000000
vn 1.000000 0.000000 0.000000
vn 1.000000 0.000000 0.000000
vn 1.000000 0.000000 0.000000
vn 1.000000 0.000000 0.000000
usemtl Blue_(ABS)
f 2/1/1 3/2/2 1/3/3
f 1/3/3 3/2/2 13/4/4
f 1/3/3 13/4/4 18/5/5
f 18/5/5 13/4/4 14/6/6
f 18/5/5 14/6/6 17/7/7
f 17/7/7 14/6/6 15/8/8
f 17/7/7 15/8/8 16/9/9
f 13/4/4 3/2/2 12/10/10
f 12/10/10 3/2/2 4/11/11
f 12/10/10 4/11/11 6/12/12
f 6/12/12 4/11/11 5/13/13
f 12/10/10 6/12/12 11/14/14
f 11/14/14 6/12/12 7/15/15
f 11/14/14 7/15/15 10/16/16
f 10/16/16 7/15/15 8/17/17
f 10/16/16 8/17/17 9/18/18
f 19/19/19 20/20/20 2/21/21
f 2/21/21 20/20/20 3/22/22
f 20/23/23 21/24/24 3/25/25
f 3/25/25 21/24/24 4/26/26
f 21/27/27 22/28/28 4/29/29
f 4/29/29 22/28/28 5/30/30
f 22/31/31 23/32/32 5/33/33
f 5/33/33 23/32/32 6/34/34
f 7/35/35 6/36/36 30/37/37
f 30/37/37 6/36/36 23/38/38
f 30/37/37 23/38/38 24/39/39
f 30/37/37 24/39/39 31/40/40
f 31/40/40 24/39/39 25/41/41
f 31/40/40 25/41/41 32/42/42
f 32/42/42 25/41/41 26/43/43
f 32/42/42 26/43/43 33/44/44
f 33/44/44 26/43/43 27/45/45
f 33/44/44 27/45/45 34/46/46
f 34/46/46 27/45/45 28/47/47
f 34/46/46 28/47/47 29/48/48
f 29/48/48 12/49/49 34/46/46
f 34/46/46 12/49/49 11/50/50
f 34/46/46 11/50/50 33/44/44
f 33/44/44 11/50/50 10/51/51
f 33/44/44 10/51/51 32/42/42
f 32/42/42 10/51/51 9/52/52
f 32/42/42 9/52/52 31/40/40
f 31/40/40 9/52/52 8/53/53
f 31/40/40 8/53/53 30/37/37
f 30/37/37 8/53/53 7/35/35
f 29/54/54 35/55/55 12/56/56
f 12/56/56 35/55/55 13/57/57
f 14/58/58 13/59/59 42/60/60
f 42/60/60 13/59/59 35/61/61
f 42/60/60 35/61/61 36/62/62
f 42/60/60 36/62/62 43/63/63
f 43/63/63 36/62/62 37/64/64
f 43/63/63 37/64/64 44/65/65
f 44/65/65 37/64/64 38/66/66
f 44/65/65 38/66/66 45/67/67
f 45/67/67 38/66/66 39/68/68
f 45/67/67 39/68/68 46/69/69
f 46/69/69 39/68/68 40/70/70
f 46/69/69 40/70/70 41/71/71
f 41/71/71 1/72/72 46/69/69
f 46/69/69 1/72/72 18/73/73
f 46/69/69 18/73/73 45/67/67
f 45/67/67 18/73/73 17/74/74
f 45/67/67 17/74/74 44/65/65
f 44/65/65 17/74/74 16/75/75
f 44/65/65 16/75/75 43/63/63
f 43/63/63 16/75/75 15/76/76
f 43/63/63 15/76/76 42/60/60
f 42/60/60 15/76/76 14/58/58
f 41/77/77 19/78/78 1/79/79
f 1/79/79 19/78/78 2/80/80
f 19/81/81 41/82/82 20/83/83
f 20/83/83 41/82/82 35/84/84
f 20/83/83 35/84/84 29/85/85
f 35/84/84 41/82/82 36/86/86
f 36/86/86 41/82/82 40/87/87
f 36/86/86 40/87/87 37/88/88
f 37/88/88 40/87/87 39/89/89
f 37/88/88 39/89/89 38/90/90
f 28/91/91 24/92/92 29/85/85
f 29/85/85 24/92/92 23/93/93
f 29/85/85 23/93/93 21/94/94
f 21/94/94 23/93/93 22/95/95
f 24/92/92 28/91/91 25/96/96
f 25/96/96 28/91/91 27/97/97
f 25/96/96 27/97/97 26/98/98
f 21/94/94 20/83/83 29/85/85
# 46 vertices
# 98 texture params
# 98 normals
# 88 facets

# 1 groups
