# WaveFront *.obj file (generated by Autodesk ATF)

mtllib body1_visual.mtl

g Body1

v 0.050000 11.000000 -0.050000
v -0.050000 11.000000 -0.050000
v -0.050000 11.000000 0.050000
v 0.050000 11.000000 0.050000
v 2.000000 6.000000 -2.000000
v -2.000000 6.000000 -2.000000
v 2.000000 6.000000 2.000000
v -2.000000 6.000000 2.000000
v -2.000000 -6.000000 2.000000
v -2.000000 -6.000000 -2.000000
v 2.000000 -6.000000 -2.000000
v 2.000000 -6.000000 2.000000
vt -0.050000 -0.050000 0.000000
vt 0.050000 -0.050000 0.000000
vt -0.050000 0.050000 0.000000
vt 0.050000 0.050000 0.000000
vt -4.000000 0.000000 0.000000
vt -0.000000 0.000000 0.000000
vt -2.050000 5.366796 0.000000
vt -1.950000 5.366796 0.000000
vt -4.000000 0.000000 0.000000
vt -0.000000 0.000000 0.000000
vt -2.050000 5.366796 0.000000
vt -1.950000 5.366796 0.000000
vt -4.000000 0.000000 0.000000
vt -0.000000 0.000000 0.000000
vt -2.050000 5.366796 0.000000
vt -1.950000 5.366796 0.000000
vt -4.000000 0.000000 0.000000
vt -0.000000 0.000000 0.000000
vt -2.050000 5.366796 0.000000
vt -1.950000 5.366796 0.000000
vt -2.000000 -2.000000 0.000000
vt 2.000000 -2.000000 0.000000
vt -2.000000 2.000000 0.000000
vt 2.000000 2.000000 0.000000
vt 4.000000 6.000000 0.000000
vt 0.000000 6.000000 0.000000
vt 4.000000 -6.000000 0.000000
vt 0.000000 -6.000000 0.000000
vt 4.000000 6.000000 0.000000
vt 0.000000 6.000000 0.000000
vt 4.000000 -6.000000 0.000000
vt 0.000000 -6.000000 0.000000
vt 4.000000 6.000000 0.000000
vt 0.000000 6.000000 0.000000
vt 4.000000 -6.000000 0.000000
vt 0.000000 -6.000000 0.000000
vt 4.000000 6.000000 0.000000
vt 0.000000 6.000000 0.000000
vt 4.000000 -6.000000 0.000000
vt 0.000000 -6.000000 0.000000
vn 0.000000 1.000000 0.000000
vn 0.000000 1.000000 0.000000
vn 0.000000 1.000000 0.000000
vn 0.000000 1.000000 0.000000
vn 0.000000 0.363345 -0.931655
vn 0.000000 0.363345 -0.931655
vn 0.000000 0.363345 -0.931655
vn 0.000000 0.363345 -0.931655
vn 0.931655 0.363345 -0.000000
vn 0.931655 0.363345 -0.000000
vn 0.931655 0.363345 -0.000000
vn 0.931655 0.363345 -0.000000
vn 0.000000 0.363345 0.931655
vn 0.000000 0.363345 0.931655
vn 0.000000 0.363345 0.931655
vn 0.000000 0.363345 0.931655
vn -0.931655 0.363345 0.000000
vn -0.931655 0.363345 0.000000
vn -0.931655 0.363345 0.000000
vn -0.931655 0.363345 0.000000
vn 0.000000 -1.000000 0.000000
vn 0.000000 -1.000000 0.000000
vn 0.000000 -1.000000 0.000000
vn 0.000000 -1.000000 0.000000
vn 0.000000 0.000000 -1.000000
vn 0.000000 0.000000 -1.000000
vn 0.000000 0.000000 -1.000000
vn 0.000000 0.000000 -1.000000
vn 1.000000 -0.000000 0.000000
vn 1.000000 -0.000000 0.000000
vn 1.000000 -0.000000 0.000000
vn 1.000000 -0.000000 0.000000
vn 0.000000 0.000000 1.000000
vn 0.000000 0.000000 1.000000
vn 0.000000 0.000000 1.000000
vn 0.000000 0.000000 1.000000
vn -1.000000 0.000000 0.000000
vn -1.000000 0.000000 0.000000
vn -1.000000 0.000000 0.000000
vn -1.000000 0.000000 0.000000
usemtl ABS_(Red)
f 2/1/1 3/2/2 1/3/3
f 1/3/3 3/2/2 4/4/4
f 5/5/5 6/6/6 1/7/7
f 1/7/7 6/6/6 2/8/8
f 7/9/9 5/10/10 4/11/11
f 4/11/11 5/10/10 1/12/12
f 8/13/13 7/14/14 3/15/15
f 3/15/15 7/14/14 4/16/16
f 6/17/17 8/18/18 2/19/19
f 2/19/19 8/18/18 3/20/20
f 9/21/21 10/22/22 12/23/23
f 12/23/23 10/22/22 11/24/24
f 6/25/25 5/26/26 10/27/27
f 10/27/27 5/26/26 11/28/28
f 5/29/29 7/30/30 11/31/31
f 11/31/31 7/30/30 12/32/32
f 7/33/33 8/34/34 12/35/35
f 12/35/35 8/34/34 9/36/36
f 8/37/37 6/38/38 9/39/39
f 9/39/39 6/38/38 10/40/40
# 12 vertices
# 40 texture params
# 40 normals
# 20 facets

# 1 groups
